# xmcd
#
# Track frame offsets:
#	150
#	34548
#	61926
#	90785
#	121303
#	156941
#	189817
#	216086
#
# Disc length: 3264 seconds
#
# Revision: 1
# Processed by: cddbd v1.4b42PL1 Copyright (c) Steve Scherf et al.
# Submitted via: audiograbber 1.80
#
DISCID=580cbe08
DTITLE=Riley Lee - An Evening Under The Sun
DYEAR=1900
DGENRE=
TTITLE0=Shimmer
TTITLE1=Wake
TTITLE2=Flare
TTITLE3=Rhymes
TTITLE4=Tradition
TTITLE5=Shift
TTITLE6=Sun
TTITLE7=Solo
EXTD=
EXTT0=
EXTT1=
EXTT2=
EXTT3=
EXTT4=
EXTT5=
EXTT6=
EXTT7=
PLAYORDER=
